<svg id="svg" version="1.1" width="400" height="400" viewBox="0 0 400 400" xmlns="http://www.w3.org/2000/svg" xmlns:xlink="http://www.w3.org/1999/xlink">
  <g id="svgg">
    <path id="path0" d="M190.019 54.322 C 139.887 57.526,99.243 85.125,82.486 127.344 C 55.991 194.096,79.156 270.079,134.583 298.226 C 142.483 302.238,143.312 301.598,138.162 295.465 C 113.848 266.511,103.500 239.258,103.399 203.906 C 103.210 137.760,144.293 93.088,203.879 94.646 C 225.515 95.212,240.439 100.063,261.558 113.394 C 273.875 121.170,287.372 135.144,296.835 149.920 C 326.686 196.530,326.948 273.288,297.395 314.335 C 293.563 319.658,292.951 321.422,294.464 322.791 C 298.837 326.749,318.004 303.738,328.902 281.445 C 358.260 221.395,349.404 147.967,307.239 101.819 C 277.031 68.758,234.401 51.485,190.019 54.322 M132.813 71.642 C 132.813 71.729,131.802 72.370,130.566 73.066 C 129.331 73.763,127.925 74.591,127.441 74.906 C 126.958 75.222,126.563 75.377,126.563 75.250 C 126.563 75.056,132.390 71.484,132.707 71.484 C 132.765 71.484,132.813 71.555,132.813 71.642 M126.172 75.545 C 126.172 75.630,125.265 76.282,124.156 76.993 C 98.222 93.635,81.243 122.090,74.649 159.961 C 74.013 163.613,73.480 166.195,73.465 165.698 C 73.404 163.703,75.534 152.135,77.152 145.669 C 84.528 116.190,99.943 93.190,122.830 77.516 C 125.921 75.399,126.172 75.251,126.172 75.545 M85.614 92.983 C 76.902 98.295,59.708 121.804,51.337 139.850 C 17.472 212.855,39.919 297.878,103.105 335.933 C 150.444 364.444,217.821 363.734,262.200 334.256 C 294.449 312.836,310.045 280.117,309.903 234.180 C 309.728 178.015,286.377 135.255,244.285 114.027 C 234.206 108.944,233.480 109.497,240.396 116.989 C 264.523 143.124,276.368 172.153,277.215 207.227 C 278.805 273.010,238.567 318.537,178.906 318.462 C 147.574 318.422,118.464 304.606,95.978 279.102 C 94.462 277.383,93.121 275.889,92.998 275.781 C 92.874 275.674,92.598 275.292,92.383 274.933 C 92.168 274.573,90.564 272.408,88.818 270.120 C 66.037 240.269,57.078 195.169,65.460 152.539 C 68.612 136.510,76.207 115.561,81.700 107.743 C 82.104 107.168,82.739 106.024,83.112 105.200 C 83.484 104.377,85.005 101.892,86.491 99.678 C 89.376 95.381,89.846 93.726,88.467 92.718 C 87.504 92.014,87.150 92.047,85.614 92.983 M81.121 98.535 C 60.329 119.351,44.309 151.187,39.207 181.836 C 38.813 184.199,38.436 185.772,38.369 185.331 C 38.153 183.911,40.596 172.281,42.631 165.039 C 48.818 143.024,59.335 122.925,73.595 105.863 C 76.723 102.122,85.362 93.359,85.924 93.359 C 86.126 93.359,83.965 95.688,81.121 98.535 M73.323 169.629 C 73.229 170.112,73.153 169.717,73.153 168.750 C 73.153 167.783,73.229 167.388,73.323 167.871 C 73.416 168.354,73.416 169.146,73.323 169.629 M72.939 173.919 C 72.852 174.621,72.779 174.141,72.777 172.852 C 72.775 171.563,72.846 170.988,72.935 171.575 C 73.024 172.162,73.026 173.217,72.939 173.919 M72.557 187.402 C 72.487 189.497,72.429 187.783,72.429 183.594 C 72.429 179.404,72.487 177.690,72.557 179.785 C 72.627 181.880,72.627 185.308,72.557 187.402 M38.047 189.219 C 37.900 190.648,37.696 191.733,37.593 191.629 C 37.490 191.526,37.530 190.277,37.682 188.854 C 37.835 187.431,38.039 186.346,38.136 186.444 C 38.234 186.541,38.193 187.790,38.047 189.219 M37.385 195.020 C 37.292 195.503,37.216 195.107,37.216 194.141 C 37.216 193.174,37.292 192.778,37.385 193.262 C 37.478 193.745,37.478 194.536,37.385 195.020 M272.433 251.339 C 272.289 251.912,272.096 252.305,272.004 252.213 C 271.912 252.121,271.955 251.577,272.098 251.004 C 272.242 250.432,272.435 250.039,272.527 250.131 C 272.619 250.223,272.577 250.767,272.433 251.339 M269.305 259.930 C 268.732 261.362,268.200 262.470,268.122 262.393 C 268.045 262.316,268.448 261.078,269.017 259.642 C 269.587 258.207,270.119 257.098,270.200 257.179 C 270.281 257.260,269.878 258.498,269.305 259.930 M267.037 265.099 C 266.495 266.140,266.044 266.865,266.034 266.710 C 266.005 266.269,267.707 262.890,267.874 263.056 C 267.956 263.138,267.579 264.057,267.037 265.099 M264.305 270.605 C 258.028 283.050,245.211 297.043,233.496 304.242 C 231.203 305.651,231.781 304.964,234.277 303.313 C 246.032 295.538,256.950 283.537,263.678 270.996 C 265.675 267.273,266.128 266.991,264.305 270.605 M309.617 294.790 C 309.286 295.399,309.009 295.775,309.000 295.624 C 308.974 295.160,309.882 293.346,310.055 293.519 C 310.144 293.608,309.947 294.180,309.617 294.790 M308.249 297.912 C 307.813 298.738,307.449 299.288,307.439 299.134 C 307.411 298.685,308.718 296.088,308.887 296.257 C 308.972 296.342,308.684 297.086,308.249 297.912 M305.482 303.686 C 302.814 308.621,302.556 308.493,305.136 303.515 C 306.249 301.366,307.237 299.685,307.331 299.779 C 307.425 299.873,306.593 301.631,305.482 303.686 M229.688 306.437 C 229.688 306.540,228.984 306.983,228.125 307.422 C 227.266 307.860,226.563 308.132,226.563 308.025 C 226.563 307.918,227.222 307.483,228.027 307.058 C 229.685 306.183,229.688 306.182,229.688 306.437 M302.130 309.668 C 301.541 310.688,300.277 312.666,299.321 314.063 C 298.364 315.459,297.044 317.438,296.386 318.461 C 295.729 319.484,295.119 320.249,295.031 320.161 C 294.943 320.073,296.440 317.654,298.359 314.786 C 300.278 311.917,302.053 309.175,302.305 308.691 C 302.556 308.208,302.860 307.813,302.981 307.813 C 303.101 307.813,302.718 308.647,302.130 309.668 " stroke="none" fill="#21c45d" fill-rule="evenodd"></path>
    <path id="path2" d="M300.977 95.313 C 302.035 96.387,302.988 97.266,303.096 97.266 C 303.203 97.266,302.425 96.387,301.367 95.313 C 300.309 94.238,299.356 93.359,299.248 93.359 C 299.141 93.359,299.918 94.238,300.977 95.313 M199.316 94.820 C 200.552 94.897,202.573 94.897,203.809 94.820 C 205.044 94.742,204.033 94.679,201.563 94.679 C 199.092 94.679,198.081 94.742,199.316 94.820 M62.591 177.734 C 62.591 178.486,62.671 178.794,62.769 178.418 C 62.868 178.042,62.868 177.427,62.769 177.051 C 62.671 176.675,62.591 176.982,62.591 177.734 M62.591 192.188 C 62.591 192.939,62.671 193.247,62.769 192.871 C 62.868 192.495,62.868 191.880,62.769 191.504 C 62.671 191.128,62.591 191.436,62.591 192.188 M103.606 196.875 C 103.606 197.627,103.687 197.935,103.785 197.559 C 103.883 197.183,103.883 196.567,103.785 196.191 C 103.687 195.815,103.606 196.123,103.606 196.875 M277.052 206.055 C 277.056 206.914,277.136 207.220,277.229 206.734 C 277.323 206.248,277.319 205.545,277.222 205.171 C 277.124 204.798,277.047 205.195,277.052 206.055 M346.211 206.641 C 346.211 207.822,346.284 208.306,346.374 207.715 C 346.463 207.124,346.463 206.157,346.374 205.566 C 346.284 204.976,346.211 205.459,346.211 206.641 M103.606 210.938 C 103.606 211.689,103.687 211.997,103.785 211.621 C 103.883 211.245,103.883 210.630,103.785 210.254 C 103.687 209.878,103.606 210.186,103.606 210.938 M277.052 215.820 C 277.056 216.680,277.136 216.985,277.229 216.499 C 277.323 216.013,277.319 215.310,277.222 214.937 C 277.124 214.563,277.047 214.961,277.052 215.820 M318.849 227.539 C 318.853 228.398,318.933 228.704,319.026 228.218 C 319.120 227.732,319.116 227.029,319.018 226.656 C 318.921 226.282,318.844 226.680,318.849 227.539 M318.849 243.945 C 318.853 244.805,318.933 245.110,319.026 244.624 C 319.120 244.138,319.116 243.435,319.018 243.062 C 318.921 242.688,318.844 243.086,318.849 243.945 M184.082 318.238 C 184.458 318.336,185.073 318.336,185.449 318.238 C 185.825 318.140,185.518 318.059,184.766 318.059 C 184.014 318.059,183.706 318.140,184.082 318.238 " stroke="none" fill="#21c45d" fill-rule="evenodd"></path><path id="path3" d="M197.754 53.804 C 198.989 53.882,201.011 53.882,202.246 53.804 C 203.481 53.727,202.471 53.663,200.000 53.663 C 197.529 53.663,196.519 53.727,197.754 53.804 M106.629 89.746 L 104.102 92.383 106.738 89.855 C 109.187 87.507,109.554 87.109,109.266 87.109 C 109.206 87.109,108.020 88.296,106.629 89.746 M79.871 97.754 L 77.539 100.195 79.980 97.864 C 81.323 96.581,82.422 95.483,82.422 95.422 C 82.422 95.134,82.036 95.486,79.871 97.754 M237.891 114.966 C 237.891 115.033,238.462 115.604,239.160 116.236 L 240.430 117.383 239.282 116.113 C 238.213 114.930,237.891 114.664,237.891 114.966 M133.582 121.387 L 131.055 124.023 133.691 121.496 C 135.142 120.105,136.328 118.919,136.328 118.859 C 136.328 118.571,135.930 118.938,133.582 121.387 M277.148 126.563 C 278.207 127.637,279.160 128.516,279.268 128.516 C 279.375 128.516,278.597 127.637,277.539 126.563 C 276.481 125.488,275.527 124.609,275.420 124.609 C 275.313 124.609,276.090 125.488,277.148 126.563 M281.641 131.055 C 282.369 131.807,283.054 132.422,283.161 132.422 C 283.268 132.422,282.760 131.807,282.031 131.055 C 281.302 130.303,280.618 129.688,280.511 129.688 C 280.403 129.688,280.912 130.303,281.641 131.055 M273.812 135.254 C 275.431 136.979,275.781 137.289,275.781 136.995 C 275.781 136.933,274.946 136.098,273.926 135.140 L 272.070 133.398 273.812 135.254 M62.658 184.961 C 62.659 188.398,62.718 189.752,62.791 187.970 C 62.863 186.187,62.863 183.375,62.790 181.720 C 62.717 180.065,62.658 181.523,62.658 184.961 M103.673 203.906 C 103.673 207.236,103.733 208.599,103.806 206.934 C 103.879 205.269,103.879 202.544,103.806 200.879 C 103.733 199.214,103.673 200.576,103.673 203.906 M346.219 202.344 C 346.219 203.740,346.290 204.312,346.376 203.613 C 346.463 202.915,346.463 201.772,346.376 201.074 C 346.290 200.376,346.219 200.947,346.219 202.344 M35.301 211.328 C 35.301 213.584,35.365 214.507,35.444 213.379 C 35.523 212.251,35.523 210.405,35.444 209.277 C 35.365 208.149,35.301 209.072,35.301 211.328 M277.094 210.938 C 277.094 212.979,277.160 213.813,277.240 212.793 C 277.321 211.772,277.321 210.103,277.240 209.082 C 277.160 208.062,277.094 208.896,277.094 210.938 M346.211 210.547 C 346.211 211.729,346.284 212.212,346.374 211.621 C 346.463 211.030,346.463 210.063,346.374 209.473 C 346.284 208.882,346.211 209.365,346.211 210.547 M318.911 235.742 C 318.912 239.609,318.970 241.139,319.041 239.140 C 319.112 237.142,319.112 233.978,319.041 232.109 C 318.969 230.240,318.911 231.875,318.911 235.742 M101.758 285.156 C 103.033 286.445,104.165 287.500,104.272 287.500 C 104.380 287.500,103.424 286.445,102.148 285.156 C 100.873 283.867,99.741 282.813,99.634 282.813 C 99.526 282.813,100.482 283.867,101.758 285.156 M246.473 292.090 L 243.945 294.727 246.582 292.199 C 249.031 289.851,249.397 289.453,249.110 289.453 C 249.050 289.453,247.863 290.640,246.473 292.090 M74.219 312.998 C 74.219 313.057,75.581 314.419,77.246 316.025 L 80.273 318.945 77.354 315.918 C 74.642 313.106,74.219 312.712,74.219 312.998 M303.306 318.457 L 301.367 320.508 303.418 318.569 C 305.324 316.768,305.648 316.406,305.356 316.406 C 305.295 316.406,304.372 317.329,303.306 318.457 M176.465 318.258 C 177.808 318.334,180.005 318.334,181.348 318.258 C 182.690 318.182,181.592 318.119,178.906 318.119 C 176.221 318.119,175.122 318.182,176.465 318.258 M278.885 320.996 L 277.539 322.461 279.004 321.115 C 279.810 320.374,280.469 319.715,280.469 319.650 C 280.469 319.352,280.138 319.633,278.885 320.996 " stroke="none" fill="#21c45d" fill-rule="evenodd"></path><path id="path4" d="M192.485 54.183 C 192.971 54.276,193.674 54.272,194.048 54.175 C 194.421 54.077,194.023 54.000,193.164 54.005 C 192.305 54.009,191.999 54.089,192.485 54.183 M206.548 54.183 C 207.033 54.276,207.737 54.272,208.110 54.175 C 208.483 54.077,208.086 54.000,207.227 54.005 C 206.367 54.009,206.062 54.089,206.548 54.183 M129.582 73.252 C 127.921 74.224,126.563 75.123,126.563 75.250 C 126.563 75.377,126.958 75.222,127.441 74.906 C 127.925 74.591,129.331 73.763,130.566 73.066 C 132.485 71.985,133.162 71.484,132.707 71.484 C 132.648 71.484,131.242 72.280,129.582 73.252 M122.830 77.516 C 99.943 93.190,84.528 116.190,77.152 145.669 C 75.534 152.135,73.404 163.703,73.465 165.698 C 73.480 166.195,74.013 163.613,74.649 159.961 C 81.243 122.090,98.222 93.635,124.156 76.993 C 125.919 75.862,126.477 75.391,126.053 75.391 C 125.987 75.391,124.537 76.347,122.830 77.516 M80.962 97.953 C 63.371 115.541,49.931 139.064,42.631 165.039 C 40.596 172.281,38.153 183.911,38.369 185.331 C 38.436 185.772,38.813 184.199,39.207 181.836 C 44.309 151.187,60.329 119.351,81.121 98.535 C 83.965 95.688,86.126 93.359,85.924 93.359 C 85.721 93.359,83.488 95.427,80.962 97.953 M194.050 94.814 C 194.752 94.901,195.807 94.899,196.394 94.810 C 196.981 94.721,196.406 94.650,195.117 94.652 C 193.828 94.654,193.348 94.727,194.050 94.814 M206.543 94.807 C 207.026 94.900,207.817 94.900,208.301 94.807 C 208.784 94.714,208.389 94.638,207.422 94.638 C 206.455 94.638,206.060 94.714,206.543 94.807 M189.941 95.191 C 190.317 95.289,190.933 95.289,191.309 95.191 C 191.685 95.093,191.377 95.013,190.625 95.013 C 189.873 95.013,189.565 95.093,189.941 95.191 M178.516 96.875 C 177.742 97.123,177.702 97.188,178.320 97.188 C 178.750 97.188,179.541 97.047,180.078 96.875 C 180.851 96.627,180.892 96.562,180.273 96.562 C 179.844 96.562,179.053 96.703,178.516 96.875 M84.402 102.697 C 83.473 104.002,83.315 104.886,84.221 103.711 C 85.008 102.689,85.622 101.563,85.392 101.563 C 85.292 101.563,84.846 102.073,84.402 102.697 M245.313 104.492 C 246.709 105.223,248.027 105.821,248.242 105.821 C 248.457 105.821,247.490 105.223,246.094 104.492 C 244.697 103.761,243.379 103.163,243.164 103.163 C 242.949 103.163,243.916 103.761,245.313 104.492 M80.664 109.375 C 80.331 110.020,80.146 110.547,80.253 110.547 C 80.361 110.547,80.721 110.020,81.055 109.375 C 81.388 108.730,81.573 108.203,81.465 108.203 C 81.358 108.203,80.997 108.730,80.664 109.375 M142.773 113.120 L 141.602 114.127 142.871 113.287 C 143.569 112.825,144.141 112.371,144.141 112.278 C 144.141 111.986,143.975 112.088,142.773 113.120 M77.715 114.882 C 77.266 115.762,76.966 116.549,77.048 116.631 C 77.129 116.713,77.579 115.993,78.046 115.030 C 79.111 112.839,78.823 112.710,77.715 114.882 M237.109 113.794 C 237.109 113.861,237.681 114.433,238.379 115.064 L 239.648 116.211 238.501 114.941 C 237.432 113.758,237.109 113.492,237.109 113.794 M262.500 114.178 C 262.500 114.256,263.335 114.892,264.355 115.590 C 265.760 116.551,265.926 116.610,265.039 115.832 C 263.860 114.798,262.500 113.913,262.500 114.178 M266.406 116.927 C 266.406 117.034,267.109 117.679,267.969 118.359 C 268.828 119.040,269.531 119.509,269.531 119.402 C 269.531 119.294,268.828 118.649,267.969 117.969 C 267.109 117.288,266.406 116.819,266.406 116.927 M242.578 119.727 C 243.307 120.479,243.991 121.094,244.099 121.094 C 244.206 121.094,243.698 120.479,242.969 119.727 C 242.240 118.975,241.556 118.359,241.448 118.359 C 241.341 118.359,241.849 118.975,242.578 119.727 M133.774 120.801 L 131.836 122.852 133.887 120.913 C 135.015 119.847,135.938 118.924,135.938 118.862 C 135.938 118.571,135.576 118.895,133.774 120.801 M278.711 127.734 C 280.851 129.883,282.690 131.641,282.798 131.641 C 282.905 131.641,281.242 129.883,279.102 127.734 C 276.961 125.586,275.122 123.828,275.015 123.828 C 274.907 123.828,276.571 125.586,278.711 127.734 M286.328 136.060 C 286.328 136.127,286.899 136.698,287.598 137.329 L 288.867 138.477 287.720 137.207 C 286.650 136.024,286.328 135.758,286.328 136.060 M73.153 168.750 C 73.153 169.717,73.229 170.112,73.323 169.629 C 73.416 169.146,73.416 168.354,73.323 167.871 C 73.229 167.388,73.153 167.783,73.153 168.750 M62.989 169.727 C 62.993 170.586,63.073 170.892,63.167 170.406 C 63.260 169.920,63.257 169.217,63.159 168.843 C 63.061 168.470,62.985 168.867,62.989 169.727 M72.777 172.852 C 72.779 174.141,72.852 174.621,72.939 173.919 C 73.026 173.217,73.024 172.162,72.935 171.575 C 72.846 170.988,72.775 171.563,72.777 172.852 M62.606 175.000 C 62.606 175.967,62.683 176.362,62.776 175.879 C 62.869 175.396,62.869 174.604,62.776 174.121 C 62.683 173.638,62.606 174.033,62.606 175.000 M72.429 183.594 C 72.429 187.783,72.487 189.497,72.557 187.402 C 72.627 185.308,72.627 181.880,72.557 179.785 C 72.487 177.690,72.429 179.404,72.429 183.594 M71.575 178.125 C 71.575 178.877,71.655 179.185,71.754 178.809 C 71.852 178.433,71.852 177.817,71.754 177.441 C 71.655 177.065,71.575 177.373,71.575 178.125 M62.259 184.570 C 62.259 187.148,62.322 188.152,62.399 186.801 C 62.475 185.450,62.475 183.341,62.398 182.114 C 62.320 180.887,62.258 181.992,62.259 184.570 M37.682 188.854 C 37.530 190.277,37.490 191.526,37.593 191.629 C 37.696 191.733,37.900 190.648,38.047 189.219 C 38.193 187.790,38.234 186.541,38.136 186.444 C 38.039 186.346,37.835 187.431,37.682 188.854 M71.575 191.016 C 71.575 191.768,71.655 192.075,71.754 191.699 C 71.852 191.323,71.852 190.708,71.754 190.332 C 71.655 189.956,71.575 190.264,71.575 191.016 M37.216 194.141 C 37.216 195.107,37.292 195.503,37.385 195.020 C 37.478 194.536,37.478 193.745,37.385 193.262 C 37.292 192.778,37.216 193.174,37.216 194.141 M62.612 195.117 C 62.615 196.191,62.691 196.584,62.780 195.991 C 62.870 195.397,62.868 194.518,62.775 194.038 C 62.682 193.557,62.609 194.043,62.612 195.117 M103.606 194.531 C 103.606 195.283,103.687 195.591,103.785 195.215 C 103.883 194.839,103.883 194.224,103.785 193.848 C 103.687 193.472,103.606 193.779,103.606 194.531 M345.794 196.094 C 345.794 196.846,345.874 197.153,345.972 196.777 C 346.071 196.401,346.071 195.786,345.972 195.410 C 345.874 195.034,345.794 195.342,345.794 196.094 M103.264 203.320 C 103.262 205.254,103.329 206.094,103.410 205.188 C 103.492 204.281,103.493 202.699,103.413 201.672 C 103.332 200.645,103.265 201.387,103.264 203.320 M35.638 203.125 C 35.638 203.877,35.718 204.185,35.816 203.809 C 35.914 203.433,35.914 202.817,35.816 202.441 C 35.718 202.065,35.638 202.373,35.638 203.125 M277.052 203.320 C 277.056 204.180,277.136 204.485,277.229 203.999 C 277.323 203.513,277.319 202.810,277.222 202.437 C 277.124 202.063,277.047 202.461,277.052 203.320 M277.044 218.359 C 277.044 219.111,277.124 219.419,277.222 219.043 C 277.321 218.667,277.321 218.052,277.222 217.676 C 277.124 217.300,277.044 217.607,277.044 218.359 M318.875 223.828 C 318.875 225.225,318.946 225.796,319.033 225.098 C 319.119 224.399,319.119 223.257,319.033 222.559 C 318.946 221.860,318.875 222.432,318.875 223.828 M309.872 227.734 C 309.872 228.701,309.948 229.097,310.041 228.613 C 310.134 228.130,310.134 227.339,310.041 226.855 C 309.948 226.372,309.872 226.768,309.872 227.734 M319.295 236.133 C 319.295 239.141,319.357 240.319,319.431 238.752 C 319.505 237.185,319.505 234.724,319.430 233.284 C 319.355 231.843,319.294 233.125,319.295 236.133 M318.867 247.266 C 318.867 248.447,318.940 248.931,319.030 248.340 C 319.119 247.749,319.119 246.782,319.030 246.191 C 318.940 245.601,318.867 246.084,318.867 247.266 M272.098 251.004 C 271.955 251.577,271.912 252.121,272.004 252.213 C 272.096 252.305,272.289 251.912,272.433 251.339 C 272.577 250.767,272.619 250.223,272.527 250.131 C 272.435 250.039,272.242 250.432,272.098 251.004 M269.017 259.642 C 268.448 261.078,268.045 262.316,268.122 262.393 C 268.200 262.470,268.732 261.362,269.305 259.930 C 269.878 258.498,270.281 257.260,270.200 257.179 C 270.119 257.098,269.587 258.207,269.017 259.642 M266.871 264.667 C 265.694 267.090,265.825 267.429,267.037 265.099 C 267.579 264.057,267.956 263.138,267.874 263.056 C 267.792 262.975,267.341 263.700,266.871 264.667 M263.678 270.996 C 256.950 283.537,246.032 295.538,234.277 303.313 C 231.781 304.964,231.203 305.651,233.496 304.242 C 245.211 297.043,258.028 283.050,264.305 270.605 C 266.128 266.991,265.675 267.273,263.678 270.996 M309.438 294.353 C 308.784 295.789,308.909 296.096,309.617 294.790 C 309.947 294.180,310.144 293.608,310.055 293.519 C 309.966 293.429,309.688 293.805,309.438 294.353 M307.310 296.175 C 307.196 296.452,306.820 297.339,306.476 298.145 C 306.131 298.950,305.931 299.609,306.031 299.609 C 306.292 299.609,307.852 296.003,307.670 295.821 C 307.587 295.738,307.425 295.897,307.310 296.175 M308.078 297.479 C 307.160 299.403,307.289 299.731,308.249 297.912 C 308.684 297.086,308.972 296.342,308.887 296.257 C 308.803 296.173,308.439 296.723,308.078 297.479 M305.136 303.515 C 304.022 305.664,303.190 307.422,303.287 307.422 C 303.572 307.422,307.518 299.966,307.331 299.779 C 307.237 299.685,306.249 301.366,305.136 303.515 M228.027 307.058 C 227.222 307.483,226.563 307.918,226.563 308.025 C 226.563 308.132,227.266 307.860,228.125 307.422 C 228.984 306.983,229.688 306.540,229.688 306.437 C 229.688 306.182,229.685 306.183,228.027 307.058 M302.305 308.691 C 302.053 309.175,300.278 311.917,298.359 314.786 C 296.440 317.654,294.943 320.073,295.031 320.161 C 295.119 320.249,295.729 319.484,296.386 318.461 C 297.044 317.438,298.364 315.459,299.321 314.063 C 301.407 311.017,303.283 307.813,302.981 307.813 C 302.860 307.813,302.556 308.208,302.305 308.691 M300.038 309.984 C 299.587 310.749,299.395 311.265,299.611 311.132 C 300.035 310.870,301.303 308.594,301.025 308.594 C 300.933 308.594,300.489 309.220,300.038 309.984 M170.219 318.245 C 170.705 318.338,171.408 318.335,171.782 318.237 C 172.155 318.139,171.758 318.063,170.898 318.067 C 170.039 318.072,169.733 318.152,170.219 318.245 M186.426 318.238 C 186.802 318.336,187.417 318.336,187.793 318.238 C 188.169 318.140,187.861 318.059,187.109 318.059 C 186.357 318.059,186.050 318.140,186.426 318.238 M177.637 318.645 C 178.550 318.728,180.044 318.728,180.957 318.645 C 181.870 318.563,181.123 318.496,179.297 318.496 C 177.471 318.496,176.724 318.563,177.637 318.645 M293.603 319.742 C 293.469 320.091,293.377 320.758,293.399 321.223 C 293.425 321.759,293.557 321.568,293.760 320.706 C 294.101 319.254,294.009 318.685,293.603 319.742 M174.902 356.916 C 175.386 357.009,176.177 357.009,176.660 356.916 C 177.144 356.823,176.748 356.747,175.781 356.747 C 174.814 356.747,174.419 356.823,174.902 356.916 M187.793 356.916 C 188.276 357.009,189.067 357.009,189.551 356.916 C 190.034 356.823,189.639 356.747,188.672 356.747 C 187.705 356.747,187.310 356.823,187.793 356.916 " stroke="none" fill="#21c45d" fill-rule="evenodd"></path></g></svg>